# xmcd
#
# Track frame offsets: 
#        150
#        20997
#        45054
#        71028
#        95189
#        118842
#        140705
#        160978
#        183778
#        208354
#        234116
#        257844
#        280706
#        302191
#        324641
#
# Disc length: 4620 seconds
#
# Revision: 0
# Processed by: cddbd v1.5.2PL0 Copyright (c) Steve Scherf et al.
# Submitted via: ExactAudioCopy v1.0b3
#
DISCID=e0120a0f
DTITLE=Sonar Pocket - SONAPOKEISM SUPER BEST DISC1
DYEAR=2013
DGENRE=JPop
TTITLE0=365日のラブストーリー。
TTITLE1=好きだよ～100回の後悔～
TTITLE2=100年先まで愛します。
TTITLE3=失恋～君は今、幸せですか？～
TTITLE4=ラブレター。～いつだって逢いたくて～
TTITLE5=二人いつまでも
TTITLE6=ゴメンね…。～お前との約束～
TTITLE7=遠恋だけど逢えない時間もアイシテル。
TTITLE8=「でも…。でも…。でも…。」
TTITLE9=君と見る未来。
TTITLE10=片想い。～リナリア～
TTITLE11=涙
TTITLE12=線香花火～8月の約束～
TTITLE13=Promise
TTITLE14=夜空咲いた星の下で。～I promise you～
EXTD=
EXTT0=
EXTT1=
EXTT2=
EXTT3=
EXTT4=
EXTT5=
EXTT6=
EXTT7=
EXTT8=
EXTT9=
EXTT10=
EXTT11=
EXTT12=
EXTT13=
EXTT14=
PLAYORDER=
